<?xml version="1.0" encoding="utf-8"?>
<!-- Generator: Adobe Illustrator 16.0.2, SVG Export Plug-In . SVG Version: 6.00 Build 0)  -->
<!DOCTYPE svg PUBLIC "-//W3C//DTD SVG 1.1//EN" "http://www.w3.org/Graphics/SVG/1.1/DTD/svg11.dtd">
<svg version="1.1" id="Слой_1" xmlns="http://www.w3.org/2000/svg" xmlns:xlink="http://www.w3.org/1999/xlink" x="0px" y="0px"
	 width="100px" height="100px" viewBox="0 0 100 100" enable-background="new 0 0 100 100" xml:space="preserve">
<g id="Shape_7_3_">
	<g>
		<path fill="#F7941D" d="M81.224,29.595C81.224,10.92,64.482,0,49.804,0C34.771,0,18.384,10.749,18.384,29.595
			c0,21.816,20.965,42.193,31.426,54.306C60.259,71.788,81.224,51.411,81.224,29.595z M35.052,31.622
			c0-7.97,6.458-14.427,14.421-14.427c7.97,0,14.421,6.458,14.421,14.427c0,7.963-6.451,14.427-14.421,14.427
			C41.51,46.049,35.052,39.585,35.052,31.622z M69.049,80.058c-0.766,0.924-2.865,1.671-3.569,2.479
			c3.428,0.887,8.913,2.057,8.913,3.348c0,2.736-13.075,5.932-24.601,5.932c-11.52,0-24.57-3.195-24.57-5.932
			c0-1.298,5.466-2.479,8.9-3.348c-0.704-0.809-2.791-1.549-3.556-2.479C17.766,81.863,12,85.401,12,89.472
			c0,5.895,15.296,10.675,37.804,10.675c22.501,0,37.798-4.78,37.798-10.675C87.607,85.401,81.842,81.863,69.049,80.058z"/>
	</g>
</g>
</svg>
