<?xml version="1.0" encoding="utf-8"?>
<!-- Generator: Adobe Illustrator 16.0.2, SVG Export Plug-In . SVG Version: 6.00 Build 0)  -->
<!DOCTYPE svg PUBLIC "-//W3C//DTD SVG 1.1//EN" "http://www.w3.org/Graphics/SVG/1.1/DTD/svg11.dtd">
<svg version="1.1" id="Слой_1" xmlns="http://www.w3.org/2000/svg" xmlns:xlink="http://www.w3.org/1999/xlink" x="0px" y="0px"
	 width="100px" height="100px" viewBox="0 0 100 100" enable-background="new 0 0 100 100" xml:space="preserve">
<g id="Shape_3_9_">
	<g>
		<path fill="#2ECC71" d="M65.276,24.958H27.838c-1.718,0-3.12,1.404-3.12,3.12s1.401,3.12,3.12,3.12h37.438
			c1.718,0,3.119-1.404,3.119-3.12S66.994,24.958,65.276,24.958z M65.276,37.438H27.838c-1.718,0-3.12,1.405-3.12,3.12
			c0,1.715,1.401,3.12,3.12,3.12h37.438c1.718,0,3.119-1.405,3.119-3.12C68.396,38.842,66.994,37.438,65.276,37.438z M27.838,62.396
			c-1.718,0-3.12,1.402-3.12,3.12c0,1.719,1.401,3.12,3.12,3.12h24.958c1.719,0,3.12-1.401,3.12-3.12c0-1.718-1.401-3.12-3.12-3.12
			H27.838z M68.396,53.036c0-1.715-1.401-3.119-3.119-3.119H27.838c-1.718,0-3.12,1.404-3.12,3.119c0,1.719,1.401,3.12,3.12,3.12
			h37.438C66.994,56.156,68.396,54.755,68.396,53.036z M49.677,87.354H18.479V12.479h56.157v43.677h12.479V12.479
			C87.114,5.591,81.521,0,74.636,0H18.479C11.594,0,6,5.591,6,12.479v74.875c0,6.886,5.594,12.479,12.479,12.479h43.677v-6.24
			H49.677V87.354z M80.875,74.875V62.396H68.396v12.479H55.917v12.479h12.479v12.479h12.479V87.354h12.479V74.875H80.875z"/>
	</g>
</g>
</svg>
