<?xml version="1.0" encoding="utf-8"?>
<!-- Generator: Adobe Illustrator 16.0.2, SVG Export Plug-In . SVG Version: 6.00 Build 0)  -->
<!DOCTYPE svg PUBLIC "-//W3C//DTD SVG 1.1//EN" "http://www.w3.org/Graphics/SVG/1.1/DTD/svg11.dtd">
<svg version="1.1" id="Слой_1" xmlns="http://www.w3.org/2000/svg" xmlns:xlink="http://www.w3.org/1999/xlink" x="0px" y="0px"
	 width="100px" height="100px" viewBox="0 0 100 100" enable-background="new 0 0 100 100" xml:space="preserve">
<g id="Shape_1_20_">
	<g>
		<path fill="#FA6374" d="M6.245,12C2.799,12,0,14.79,0,18.245c0,3.454,2.799,6.244,6.245,6.244c3.445,0,6.244-2.79,6.244-6.244
			C12.489,14.79,9.69,12,6.245,12z M6.245,43.222C2.799,43.222,0,46.012,0,49.466c0,3.452,2.799,6.245,6.245,6.245
			c3.445,0,6.244-2.793,6.244-6.245C12.489,46.012,9.69,43.222,6.245,43.222z M6.245,74.444C2.799,74.444,0,77.237,0,80.688
			s2.799,6.244,6.245,6.244c3.445,0,6.244-2.793,6.244-6.244S9.69,74.444,6.245,74.444z M31.222,24.489h62.444
			c3.451,0,6.244-2.79,6.244-6.244c0-3.455-2.793-6.245-6.244-6.245H31.222c-3.445,0-6.245,2.79-6.245,6.245
			C24.978,21.699,27.777,24.489,31.222,24.489z M93.666,43.222H31.222c-3.445,0-6.245,2.79-6.245,6.244
			c0,3.452,2.799,6.245,6.245,6.245h62.444c3.451,0,6.244-2.793,6.244-6.245C99.91,46.012,97.117,43.222,93.666,43.222z
			 M93.666,74.444H31.222c-3.445,0-6.245,2.793-6.245,6.244s2.799,6.244,6.245,6.244h62.444c3.451,0,6.244-2.793,6.244-6.244
			S97.117,74.444,93.666,74.444z"/>
	</g>
</g>
</svg>
