<?xml version="1.0" encoding="utf-8"?>
<!-- Generator: Adobe Illustrator 16.0.2, SVG Export Plug-In . SVG Version: 6.00 Build 0)  -->
<!DOCTYPE svg PUBLIC "-//W3C//DTD SVG 1.1//EN" "http://www.w3.org/Graphics/SVG/1.1/DTD/svg11.dtd">
<svg version="1.1" id="Слой_1" xmlns="http://www.w3.org/2000/svg" xmlns:xlink="http://www.w3.org/1999/xlink" x="0px" y="0px"
	 width="100px" height="100px" viewBox="0 0 100 100" enable-background="new 0 0 100 100" xml:space="preserve">
<g id="Shape_2_51_">
	<g>
		<path fill="#47C9AF" d="M81.249,13H18.75C8.398,13,0,21.398,0,31.75v37.5C0,79.607,8.398,88,18.75,88h62.499
			c10.358,0,18.75-8.393,18.75-18.75v-37.5C99.999,21.398,91.607,13,81.249,13z M87.499,69.25c0,3.454-2.795,6.25-6.25,6.25H18.75
			c-3.455,0-6.25-2.796-6.25-6.25V50.5h74.999V69.25z M12.5,31.75c0-3.458,2.795-6.25,6.25-6.25h62.499
			c3.455,0,6.25,2.792,6.25,6.25H12.5z"/>
	</g>
</g>
</svg>
