<?xml version="1.0" encoding="utf-8"?>
<!-- Generator: Adobe Illustrator 16.0.2, SVG Export Plug-In . SVG Version: 6.00 Build 0)  -->
<!DOCTYPE svg PUBLIC "-//W3C//DTD SVG 1.1//EN" "http://www.w3.org/Graphics/SVG/1.1/DTD/svg11.dtd">
<svg version="1.1" id="Слой_1" xmlns="http://www.w3.org/2000/svg" xmlns:xlink="http://www.w3.org/1999/xlink" x="0px" y="0px"
	 width="100px" height="100px" viewBox="0 0 100 100" enable-background="new 0 0 100 100" xml:space="preserve">
<g id="Shape_2_36_">
	<g>
		<path fill="#9D81D3" d="M49.662,0C43.201,0,6,15.565,6,18.9c0,37.782,18.796,81.254,43.858,81.254
			c24.988,0,43.858-42.554,43.858-81.45C93.716,15.37,56.123,0,49.662,0z M49.858,90.463c-15.395,0-35.476-35.5-35.476-65.683
			c0-2.662,30.208-15.095,35.316-15.095s35.634,12.28,35.634,14.942C85.333,55.697,65.216,90.463,49.858,90.463z M43.33,51.843
			L30.278,41.337l-5.023,5.586l18.129,20.601l31.774-30.782l-5.097-5.568L43.33,51.843z"/>
	</g>
</g>
</svg>
