<?xml version="1.0" encoding="utf-8"?>
<!-- Generator: Adobe Illustrator 16.0.2, SVG Export Plug-In . SVG Version: 6.00 Build 0)  -->
<!DOCTYPE svg PUBLIC "-//W3C//DTD SVG 1.1//EN" "http://www.w3.org/Graphics/SVG/1.1/DTD/svg11.dtd">
<svg version="1.1" id="Слой_1" xmlns="http://www.w3.org/2000/svg" xmlns:xlink="http://www.w3.org/1999/xlink" x="0px" y="0px"
	 width="100px" height="100px" viewBox="0 0 100 100" enable-background="new 0 0 100 100" xml:space="preserve">
<g id="Shape_2_10_">
	<g>
		<path fill="#3498DB" d="M95.137,60.489l-7.47-3.1c0.984-4.983,0.948-9.995,0.015-14.799l7.549-3.129
			c3.898-1.625,5.737-6.08,4.127-9.972c-1.618-3.892-6.081-5.738-9.965-4.127l-7.556,3.122c-2.724-4.042-6.224-7.605-10.415-10.421
			l3.072-7.414c1.611-3.899-0.234-8.361-4.135-9.965c-3.898-1.618-8.347,0.229-9.972,4.127l-3.065,7.406
			c-4.926-0.955-9.887-0.898-14.648,0.035l-3.122-7.542c-1.619-3.892-6.081-5.745-9.973-4.127c-3.892,1.611-5.738,6.081-4.134,9.965
			l3.129,7.534c-4.077,2.738-7.648,6.266-10.479,10.493l-7.548-3.129C6.663,23.83,2.2,25.683,0.589,29.575
			c-1.625,3.899,0.228,8.354,4.12,9.965l7.578,3.144c-0.948,4.904-0.877,9.858,0.05,14.591l-7.528,3.123
			c-3.892,1.61-5.745,6.073-4.134,9.965c1.618,3.893,6.081,5.746,9.972,4.127l7.535-3.122c2.701,4.027,6.18,7.585,10.343,10.386
			l-3.172,7.642c-1.611,3.885,0.235,8.361,4.127,9.959c3.893,1.624,8.361-0.229,9.965-4.121l3.165-7.627
			c4.961,0.977,9.965,0.927,14.749-0.015l3.129,7.549c1.611,3.878,6.073,5.731,9.966,4.113c3.892-1.604,5.737-6.073,4.127-9.966
			l-3.122-7.534c4.006-2.688,7.534-6.144,10.343-10.271l7.498,3.108c3.886,1.61,8.354-0.235,9.966-4.128
			C100.876,66.57,99.03,62.094,95.137,60.489z M71.601,58.857c-4.934,11.897-18.569,17.549-30.466,12.624
			S23.585,52.92,28.518,41.022c4.926-11.896,18.569-17.557,30.466-12.624C70.88,33.324,76.512,46.96,71.601,58.857z M54.948,38.193
			c-6.5-2.688-13.978,0.406-16.666,6.907c-2.694,6.5,0.393,13.971,6.9,16.672c6.515,2.694,13.971-0.398,16.666-6.906
			C64.558,48.358,61.464,40.888,54.948,38.193z"/>
	</g>
</g>
</svg>
